<svg xmlns="http://www.w3.org/2000/svg" version="1.1" xmlns:xlink="http://www.w3.org/1999/xlink" xmlns:svgjs="http://svgjs.com/svgjs" width="20" height="10"><svg width="20" height="10" viewBox="0 0 20 10" fill="none" xmlns="http://www.w3.org/2000/svg">
<path d="M1.75195 0.757812H3.46582L5.6875 7.36572L7.90283 0.757812H9.6167L6.37939 10H4.98926L1.75195 0.757812ZM0.761719 0.757812H2.50732L2.83105 7.60693V10H0.761719V0.757812ZM8.86133 0.757812H10.6133V10H8.5376V7.60693L8.86133 0.757812ZM15.793 6.78809H13.4697V5.18213H15.793C16.1357 5.18213 16.4108 5.125 16.6182 5.01074C16.8298 4.89648 16.9842 4.73991 17.0815 4.54102C17.1831 4.33789 17.2339 4.10938 17.2339 3.85547C17.2339 3.5931 17.1831 3.34977 17.0815 3.12549C16.9842 2.89697 16.8298 2.71289 16.6182 2.57324C16.4108 2.43359 16.1357 2.36377 15.793 2.36377H14.2188V10H12.1494V0.757812H15.793C16.5293 0.757812 17.1598 0.891113 17.6846 1.15771C18.2135 1.42432 18.6177 1.79036 18.897 2.25586C19.1805 2.71712 19.3223 3.24609 19.3223 3.84277C19.3223 4.43945 19.1805 4.95785 18.897 5.39795C18.6177 5.83805 18.2135 6.18083 17.6846 6.42627C17.1598 6.66748 16.5293 6.78809 15.793 6.78809Z" fill="#1976D2"></path>
</svg><style>@media (prefers-color-scheme: light) { :root { filter: none; } }
</style></svg>