<svg width="785" height="430" viewBox="0 0 785 430" fill="none" xmlns="http://www.w3.org/2000/svg">
<path d="M684.008 46H51.9928C51.7275 45.8686 51.4751 43.3859 51.2895 39.0865C51.1039 34.7893 51 29.0131 51 22.9989C51 16.987 51.1039 11.2106 51.2895 6.9112C51.4751 2.61406 51.7275 0.131383 51.9928 0H684.008C684.272 0.131383 684.525 2.61406 684.71 6.9112C684.896 11.2106 685 16.987 685 22.9989C685 29.0131 684.896 34.7893 684.71 39.0865C684.525 43.3859 684.272 45.8686 684.008 46Z" fill="#1D3557"/>
<path d="M73.9532 32.3376C79.9871 32.3376 84.8786 27.3372 84.8786 21.1688C84.8786 15.0005 79.9871 10 73.9532 10C67.9193 10 63.0279 15.0005 63.0279 21.1688C63.0279 27.3372 67.9193 32.3376 73.9532 32.3376Z" fill="white"/>
<path d="M111.695 32.3376C117.729 32.3376 122.621 27.3372 122.621 21.1688C122.621 15.0005 117.729 10 111.695 10C105.661 10 100.77 15.0005 100.77 21.1688C100.77 27.3372 105.661 32.3376 111.695 32.3376Z" fill="white"/>
<path d="M149.437 32.3376C155.471 32.3376 160.363 27.3372 160.363 21.1688C160.363 15.0005 155.471 10 149.437 10C143.403 10 138.512 15.0005 138.512 21.1688C138.512 27.3372 143.403 32.3376 149.437 32.3376Z" fill="white"/>
<path d="M543.713 116.141H109.703C107.565 116.142 105.514 116.99 104.001 118.502C102.487 120.013 101.636 122.063 101.633 124.201V329.071C101.636 331.211 102.487 333.262 104 334.775C105.512 336.288 107.564 337.139 109.703 337.141H543.713C545.851 337.137 547.9 336.285 549.411 334.772C550.922 333.26 551.771 331.209 551.773 329.071V124.201C551.771 122.064 550.921 120.016 549.41 118.505C547.899 116.994 545.85 116.144 543.713 116.141Z" fill="#1D3557"/>
<path d="M429.073 214.842C426.936 214.844 424.887 215.694 423.376 217.205C421.865 218.716 421.015 220.765 421.013 222.902V280.772C421.015 282.91 421.864 284.96 423.375 286.472C424.886 287.985 426.935 288.837 429.073 288.842H551.773V214.842H429.073Z" fill="#1976D2"/>
<path opacity="0.5" d="M758.088 288.837H429.078C426.939 288.835 424.889 287.984 423.376 286.472C421.864 284.96 421.014 282.91 421.011 280.771V222.903C421.014 220.765 421.864 218.715 423.377 217.202C424.889 215.69 426.939 214.84 429.078 214.837H758.088C760.226 214.84 762.277 215.69 763.789 217.202C765.301 218.715 766.152 220.765 766.154 222.903V280.771C766.152 282.91 765.301 284.96 763.789 286.472C762.277 287.984 760.226 288.835 758.088 288.837Z" fill="#1976D2"/>
<path d="M473.571 268.626C480.8 268.626 486.66 262.766 486.66 255.537C486.66 248.308 480.8 242.447 473.571 242.447C466.342 242.447 460.482 248.308 460.482 255.537C460.482 262.766 466.342 268.626 473.571 268.626Z" fill="white"/>
<path d="M747.894 251.734H511.38C510.346 251.734 509.355 251.323 508.624 250.592C507.893 249.861 507.482 248.87 507.482 247.836C507.482 246.802 507.893 245.811 508.624 245.08C509.355 244.349 510.346 243.938 511.38 243.938H747.894C748.927 243.938 749.919 244.349 750.65 245.08C751.381 245.811 751.792 246.802 751.792 247.836C751.792 248.87 751.381 249.861 750.65 250.592C749.919 251.323 748.927 251.734 747.894 251.734Z" fill="white"/>
<path d="M658.063 267.135H511.38C510.346 267.135 509.354 266.725 508.623 265.994C507.892 265.263 507.482 264.271 507.482 263.238C507.482 262.204 507.892 261.212 508.623 260.481C509.354 259.75 510.346 259.34 511.38 259.34H658.063C659.097 259.34 660.089 259.75 660.82 260.481C661.551 261.212 661.961 262.204 661.961 263.238C661.961 264.271 661.551 265.263 660.82 265.994C660.089 266.725 659.097 267.135 658.063 267.135Z" fill="white"/>
<path d="M756.68 238.348C751.214 238.348 745.871 236.727 741.326 233.69C736.781 230.653 733.238 226.337 731.146 221.286C729.054 216.236 728.507 210.679 729.573 205.318C730.64 199.957 733.272 195.032 737.137 191.167C741.003 187.301 745.927 184.669 751.289 183.603C756.65 182.536 762.207 183.084 767.257 185.176C772.307 187.267 776.624 190.81 779.661 195.355C782.697 199.9 784.318 205.243 784.318 210.71C784.318 218.04 781.407 225.07 776.223 230.253C771.04 235.436 764.01 238.348 756.68 238.348Z" fill="#1976D2"/>
<path d="M767.586 207.984H759.407V199.805C759.407 199.081 759.12 198.388 758.608 197.877C758.097 197.365 757.403 197.078 756.68 197.078C755.957 197.078 755.264 197.365 754.753 197.877C754.241 198.388 753.954 199.081 753.954 199.805V207.984H745.775C745.417 207.983 745.062 208.053 744.73 208.19C744.399 208.326 744.098 208.527 743.844 208.78C743.59 209.033 743.389 209.334 743.252 209.665C743.114 209.996 743.044 210.351 743.044 210.71C743.044 211.068 743.114 211.423 743.252 211.754C743.389 212.085 743.59 212.386 743.844 212.639C744.098 212.893 744.399 213.093 744.73 213.23C745.062 213.367 745.417 213.437 745.775 213.436H753.954V221.615C753.954 222.338 754.241 223.032 754.753 223.543C755.264 224.054 755.957 224.342 756.68 224.342C757.403 224.342 758.097 224.054 758.608 223.543C759.12 223.032 759.407 222.338 759.407 221.615V213.436H767.586C768.309 213.436 769.002 213.149 769.513 212.638C770.025 212.126 770.312 211.433 770.312 210.71C770.312 209.987 770.025 209.293 769.513 208.782C769.002 208.271 768.309 207.984 767.586 207.984Z" fill="white"/>
<path d="M334.883 289.211H229.873C227.734 289.214 225.682 290.065 224.17 291.578C222.657 293.091 221.806 295.142 221.803 297.281V337.141H342.943V297.281C342.942 295.143 342.092 293.093 340.581 291.581C339.07 290.068 337.021 289.216 334.883 289.211Z" fill="#1976D2"/>
<path opacity="0.5" d="M334.88 401.211H229.87C227.731 401.209 225.681 400.358 224.169 398.846C222.656 397.334 221.806 395.284 221.803 393.145V297.278C221.806 295.139 222.656 293.089 224.169 291.577C225.681 290.064 227.731 289.214 229.87 289.211H334.88C337.018 289.214 339.069 290.064 340.581 291.577C342.093 293.089 342.944 295.139 342.946 297.278V393.145C342.944 395.284 342.093 397.334 340.581 398.846C339.069 400.358 337.018 401.209 334.88 401.211Z" fill="#1976D2"/>
<path d="M260.808 334.652C268.037 334.652 273.898 328.792 273.898 321.563C273.898 314.334 268.037 308.473 260.808 308.473C253.579 308.473 247.719 314.334 247.719 321.563C247.719 328.792 253.579 334.652 260.808 334.652Z" fill="white"/>
<path d="M313.131 354.547H251.617C250.583 354.547 249.592 354.137 248.861 353.406C248.13 352.675 247.719 351.683 247.719 350.649C247.719 349.616 248.13 348.624 248.861 347.893C249.592 347.162 250.583 346.752 251.617 346.752H313.131C314.165 346.752 315.156 347.162 315.887 347.893C316.618 348.624 317.029 349.616 317.029 350.649C317.029 351.683 316.618 352.675 315.887 353.406C315.156 354.137 314.165 354.547 313.131 354.547Z" fill="white"/>
<path d="M281.301 369.949H251.617C250.583 369.949 249.592 369.539 248.861 368.807C248.13 368.076 247.719 367.085 247.719 366.051C247.719 365.017 248.13 364.026 248.861 363.295C249.592 362.564 250.583 362.153 251.617 362.153H281.301C282.334 362.153 283.326 362.564 284.057 363.295C284.788 364.026 285.199 365.017 285.199 366.051C285.199 367.085 284.788 368.076 284.057 368.807C283.326 369.539 282.334 369.949 281.301 369.949Z" fill="white"/>
<path d="M227.68 429.348C222.214 429.348 216.871 427.727 212.326 424.69C207.781 421.653 204.238 417.337 202.146 412.286C200.054 407.236 199.507 401.679 200.573 396.318C201.64 390.957 204.272 386.032 208.137 382.167C212.003 378.302 216.927 375.669 222.288 374.603C227.65 373.536 233.207 374.084 238.257 376.176C243.307 378.267 247.624 381.81 250.661 386.355C253.697 390.9 255.318 396.244 255.318 401.71C255.318 409.04 252.407 416.07 247.223 421.253C242.04 426.436 235.01 429.348 227.68 429.348Z" fill="#1976D2"/>
<path d="M238.586 398.984H230.407V390.805C230.407 390.081 230.12 389.388 229.608 388.877C229.097 388.365 228.403 388.078 227.68 388.078C226.957 388.078 226.264 388.365 225.753 388.877C225.241 389.388 224.954 390.081 224.954 390.805V398.984H216.775C216.417 398.983 216.062 399.053 215.73 399.19C215.399 399.326 215.098 399.527 214.844 399.78C214.59 400.033 214.389 400.334 214.252 400.665C214.114 400.996 214.044 401.351 214.044 401.71C214.044 402.068 214.114 402.423 214.252 402.754C214.389 403.085 214.59 403.386 214.844 403.639C215.098 403.893 215.399 404.093 215.73 404.23C216.062 404.367 216.417 404.437 216.775 404.436H224.954V412.615C224.954 413.338 225.241 414.032 225.753 414.543C226.264 415.054 226.957 415.341 227.68 415.341C228.403 415.341 229.097 415.054 229.608 414.543C230.12 414.032 230.407 413.338 230.407 412.615V404.436H238.586C239.309 404.436 240.002 404.149 240.513 403.638C241.025 403.126 241.312 402.433 241.312 401.71C241.312 400.987 241.025 400.293 240.513 399.782C240.002 399.271 239.309 398.984 238.586 398.984Z" fill="white"/>
<path d="M0.611877 219.665C0.518964 219.461 0.42631 219.256 0.333923 219.05C0.369533 219.051 0.404789 219.056 0.440399 219.057L0.611877 219.665Z" fill="#2F2E41"/>
</svg>
