<svg width="645" height="413" viewBox="0 0 645 413" fill="none" xmlns="http://www.w3.org/2000/svg">
<path d="M644.866 0.572693H1.00449V412.93H644.866V0.572693Z" fill="white"/>
<path d="M626.455 52.2926H19.4156V388.535H626.455V52.2926Z" fill="white"/>
<path d="M644.591 0.207703H0.729553V27.5613H644.591V0.207703Z" fill="#1D3557"/>
<path d="M21.0565 19.2621C23.8565 19.2621 26.1263 16.9923 26.1263 14.1923C26.1263 11.3923 23.8565 9.1225 21.0565 9.1225C18.2566 9.1225 15.9868 11.3923 15.9868 14.1923C15.9868 16.9923 18.2566 19.2621 21.0565 19.2621Z" fill="white"/>
<path d="M40.3002 19.2621C43.1001 19.2621 45.37 16.9923 45.37 14.1923C45.37 11.3923 43.1001 9.1225 40.3002 9.1225C37.5002 9.1225 35.2304 11.3923 35.2304 14.1923C35.2304 16.9923 37.5002 19.2621 40.3002 19.2621Z" fill="white"/>
<path d="M59.5438 19.2621C62.3438 19.2621 64.6136 16.9923 64.6136 14.1923C64.6136 11.3923 62.3438 9.1225 59.5438 9.1225C56.7438 9.1225 54.474 11.3923 54.474 14.1923C54.474 16.9923 56.7438 19.2621 59.5438 19.2621Z" fill="white"/>
<path d="M571.297 87.1805H415.317V203.305H571.297V87.1805Z" fill="#E6E6E6"/>
<path d="M571.297 237.523H415.317V353.647H571.297V237.523Z" fill="#1976D2"/>
<path d="M455.22 285H531.78C534.663 285 537 283.657 537 282C537 280.343 534.663 279 531.78 279H455.22C452.337 279 450 280.343 450 282C450 283.657 452.337 285 455.22 285Z" fill="white"/>
<path d="M455.22 320H531.78C534.663 320 537 318.657 537 317C537 315.343 534.663 314 531.78 314H455.22C452.337 314 450 315.343 450 317C450 318.657 452.337 320 455.22 320Z" fill="white"/>
<path d="M387 87H75V354H387V87Z" fill="#E6E6E6"/>
<path d="M263.765 261C262.077 261.002 260.425 260.556 259.02 259.719C257.615 258.882 256.519 257.691 255.873 256.298C255.226 254.904 255.057 253.37 255.388 251.891C255.717 250.411 256.532 249.052 257.727 247.987L287.003 221.837C287.919 221.017 288.435 219.904 288.435 218.744C288.435 217.585 287.919 216.472 287.003 215.651L257.568 189.359C256.754 188.632 256.108 187.769 255.668 186.818C255.226 185.868 255 184.85 255 183.822C255 182.794 255.226 181.775 255.668 180.825C256.108 179.875 256.754 179.012 257.568 178.286C259.207 176.828 261.425 176.007 263.739 176C266.052 175.994 268.275 176.802 269.926 178.251L309.538 213.19C310.319 213.878 310.938 214.699 311.361 215.603C311.783 216.508 312 217.478 312 218.458C312 219.438 311.783 220.409 311.361 221.313C310.938 222.217 310.319 223.038 309.538 223.726L269.765 258.807C268.168 260.216 266.011 261.004 263.765 261Z" fill="#1976D2"/>
<path d="M218.238 261C215.993 261.004 213.836 260.216 212.238 258.807L172.466 223.726C171.685 223.038 171.064 222.217 170.641 221.313C170.218 220.409 170 219.438 170 218.458C170 217.478 170.218 216.508 170.641 215.603C171.064 214.699 171.685 213.878 172.466 213.19L212.078 178.251C213.728 176.802 215.951 175.994 218.264 176C220.579 176.007 222.796 176.828 224.436 178.286C226.078 179.755 226.999 181.746 227 183.822C227 185.898 226.078 187.889 224.437 189.359L195.001 215.651C194.084 216.472 193.569 217.585 193.569 218.744C193.569 219.904 194.084 221.017 195.001 221.837L224.276 247.987C225.472 249.052 226.286 250.411 226.617 251.891C226.947 253.37 226.778 254.904 226.131 256.298C225.485 257.691 224.389 258.882 222.984 259.719C221.579 260.557 219.927 261.002 218.238 261Z" fill="#1976D2"/>
<path d="M228.224 293.647H78.2235C77.2953 293.647 76.405 293.279 75.7487 292.622C75.0923 291.966 74.7235 291.076 74.7235 290.147C74.7235 289.219 75.0923 288.329 75.7487 287.672C76.405 287.016 77.2953 286.647 78.2235 286.647H228.224C229.152 286.647 230.042 287.016 230.698 287.672C231.355 288.329 231.724 289.219 231.724 290.147C231.724 291.076 231.355 291.966 230.698 292.622C230.042 293.279 229.152 293.647 228.224 293.647V293.647Z" fill="#E6E6E6"/>
<path d="M228.224 313.647H78.2235C77.2953 313.647 76.405 313.279 75.7487 312.622C75.0923 311.966 74.7235 311.076 74.7235 310.147C74.7235 309.219 75.0923 308.329 75.7487 307.672C76.405 307.016 77.2953 306.647 78.2235 306.647H228.224C229.152 306.647 230.042 307.016 230.698 307.672C231.355 308.329 231.724 309.219 231.724 310.147C231.724 311.076 231.355 311.966 230.698 312.622C230.042 313.279 229.152 313.647 228.224 313.647V313.647Z" fill="#E6E6E6"/>
<path d="M228.224 333.647H78.2235C77.2953 333.647 76.405 333.279 75.7487 332.622C75.0923 331.966 74.7235 331.076 74.7235 330.147C74.7235 329.219 75.0923 328.329 75.7487 327.672C76.405 327.016 77.2953 326.647 78.2235 326.647H228.224C229.152 326.647 230.042 327.016 230.698 327.672C231.355 328.329 231.724 329.219 231.724 330.147C231.724 331.076 231.355 331.966 230.698 332.622C230.042 333.279 229.152 333.647 228.224 333.647Z" fill="#E6E6E6"/>
<path d="M228.224 353.647H78.2235C77.2953 353.647 76.405 353.279 75.7487 352.622C75.0923 351.966 74.7235 351.076 74.7235 350.147C74.7235 349.219 75.0923 348.329 75.7487 347.672C76.405 347.016 77.2953 346.647 78.2235 346.647H228.224C229.152 346.647 230.042 347.016 230.698 347.672C231.355 348.329 231.724 349.219 231.724 350.147C231.724 351.076 231.355 351.966 230.698 352.622C230.042 353.279 229.152 353.647 228.224 353.647Z" fill="#E6E6E6"/>
<path d="M384.471 293.647H260.471C259.543 293.647 258.653 293.279 257.996 292.622C257.34 291.966 256.971 291.076 256.971 290.147C256.971 289.219 257.34 288.329 257.996 287.672C258.653 287.016 259.543 286.647 260.471 286.647H384.471C385.399 286.647 386.29 287.016 386.946 287.672C387.602 288.329 387.971 289.219 387.971 290.147C387.971 291.076 387.602 291.966 386.946 292.622C386.29 293.279 385.399 293.647 384.471 293.647V293.647Z" fill="#E6E6E6"/>
<path d="M384.471 313.647H260.471C259.543 313.647 258.653 313.279 257.996 312.622C257.34 311.966 256.971 311.076 256.971 310.147C256.971 309.219 257.34 308.329 257.996 307.672C258.653 307.016 259.543 306.647 260.471 306.647H384.471C385.399 306.647 386.29 307.016 386.946 307.672C387.602 308.329 387.971 309.219 387.971 310.147C387.971 311.076 387.602 311.966 386.946 312.622C386.29 313.279 385.399 313.647 384.471 313.647V313.647Z" fill="#E6E6E6"/>
<path d="M384.471 333.647H260.471C259.543 333.647 258.653 333.279 257.996 332.622C257.34 331.966 256.971 331.076 256.971 330.147C256.971 329.219 257.34 328.329 257.996 327.672C258.653 327.016 259.543 326.647 260.471 326.647H384.471C385.399 326.647 386.29 327.016 386.946 327.672C387.602 328.329 387.971 329.219 387.971 330.147C387.971 331.076 387.602 331.966 386.946 332.622C386.29 333.279 385.399 333.647 384.471 333.647V333.647Z" fill="#E6E6E6"/>
<path d="M384.471 353.647H260.471C259.543 353.647 258.653 353.279 257.996 352.622C257.34 351.966 256.971 351.076 256.971 350.147C256.971 349.219 257.34 348.329 257.996 347.672C258.653 347.016 259.543 346.647 260.471 346.647H384.471C385.399 346.647 386.29 347.016 386.946 347.672C387.602 348.329 387.971 349.219 387.971 350.147C387.971 351.076 387.602 351.966 386.946 352.622C386.29 353.279 385.399 353.647 384.471 353.647V353.647Z" fill="#E6E6E6"/>
<path d="M455.22 303H531.78C534.663 303 537 301.657 537 300C537 298.343 534.663 297 531.78 297H455.22C452.337 297 450 298.343 450 300C450 301.657 452.337 303 455.22 303Z" fill="white"/>
<path d="M455.22 267H531.78C534.663 267 537 265.657 537 264C537 262.343 534.663 261 531.78 261H455.22C452.337 261 450 262.343 450 264C450 265.657 452.337 267 455.22 267Z" fill="white"/>
<path d="M455.22 336H531.78C534.663 336 537 334.657 537 333C537 331.343 534.663 330 531.78 330H455.22C452.337 330 450 331.343 450 333C450 334.657 452.337 336 455.22 336Z" fill="white"/>
</svg>
