<svg width="1013" height="557" viewBox="0 0 1013 557" fill="none" xmlns="http://www.w3.org/2000/svg">
<path d="M657.57 434.548H16.731C12.357 434.543 8.16302 432.803 5.06902 429.71C1.97602 426.616 0.236018 422.422 0.231018 418.048V22.894C0.235018 19.6892 1.50902 16.6166 3.77602 14.3504C6.04202 12.0842 9.11402 10.8094 12.319 10.8057H661.773C665.033 10.8094 668.159 12.1062 670.464 14.4116C672.769 16.717 674.066 19.8427 674.07 23.103V418.048C674.065 422.422 672.325 426.616 669.232 429.71C666.138 432.803 661.944 434.543 657.57 434.548Z" fill="#F2F2F2"/>
<path d="M636.85 413.716H39.605C30.85 413.716 23.728 407.046 23.728 398.847V54.7424C23.728 48.6623 29.006 43.7155 35.493 43.7155H640.767C647.362 43.7155 652.728 48.7438 652.728 54.924V398.847C652.728 407.046 645.605 413.716 636.85 413.716Z" fill="#1D3557"/>
<path d="M673.84 24.9502H0V16.5498C0.006 12.1607 1.753 7.95333 4.858 4.85072C7.962 1.74811 12.17 0.00363937 16.56 0H657.28C661.669 0.00360236 665.877 1.74806 668.982 4.85068C672.087 7.95329 673.834 12.1607 673.84 16.5498V24.9502Z" fill="#1D3557"/>
<path d="M30.095 16.7834C32.461 16.7834 34.378 14.8656 34.378 12.5C34.378 10.1343 32.461 8.21655 30.095 8.21655C27.729 8.21655 25.812 10.1343 25.812 12.5C25.812 14.8656 27.729 16.7834 30.095 16.7834Z" fill="white"/>
<path d="M46.354 16.7834C48.719 16.7834 50.637 14.8656 50.637 12.5C50.637 10.1343 48.719 8.21655 46.354 8.21655C43.988 8.21655 42.07 10.1343 42.07 12.5C42.07 14.8656 43.988 16.7834 46.354 16.7834Z" fill="white"/>
<path d="M62.613 16.7834C64.978 16.7834 66.896 14.8656 66.896 12.5C66.896 10.1343 64.978 8.21655 62.613 8.21655C60.247 8.21655 58.329 10.1343 58.329 12.5C58.329 14.8656 60.247 16.7834 62.613 16.7834Z" fill="white"/>
<path d="M324.058 118.954H207.25C205.509 118.954 203.839 118.263 202.607 117.031C201.376 115.8 200.684 114.13 200.684 112.388C200.684 110.647 201.376 108.977 202.607 107.745C203.839 106.514 205.509 105.822 207.25 105.822H324.058C325.8 105.822 327.47 106.514 328.701 107.745C329.933 108.977 330.625 110.647 330.625 112.388C330.625 114.13 329.933 115.8 328.701 117.031C327.47 118.263 325.8 118.954 324.058 118.954Z" fill="#CCCCCC"/>
<path d="M469.205 118.954H352.397C350.655 118.954 348.985 118.263 347.754 117.031C346.522 115.8 345.83 114.13 345.83 112.388C345.83 110.647 346.522 108.977 347.754 107.745C348.985 106.514 350.655 105.822 352.397 105.822H469.205C470.946 105.822 472.616 106.514 473.848 107.745C475.079 108.977 475.771 110.647 475.771 112.388C475.771 114.13 475.079 115.8 473.848 117.031C472.616 118.263 470.946 118.954 469.205 118.954Z" fill="#CCCCCC"/>
<path d="M469.205 143.837H266C264.259 143.837 262.588 143.145 261.357 141.913C260.126 140.682 259.434 139.012 259.434 137.271C259.434 135.529 260.126 133.859 261.357 132.628C262.588 131.396 264.259 130.704 266 130.704H469.205C470.946 130.704 472.616 131.396 473.848 132.628C475.079 133.859 475.771 135.529 475.771 137.271C475.771 139.012 475.079 140.682 473.848 141.913C472.616 143.145 470.946 143.837 469.205 143.837Z" fill="#CCCCCC"/>
<path d="M324.058 93.7267H207.25C205.51 93.7245 203.842 93.0318 202.613 91.8006C201.383 90.5695 200.692 88.9006 200.692 87.1605C200.692 85.4205 201.383 83.7516 202.613 82.5204C203.842 81.2893 205.51 80.5965 207.25 80.5944H324.058C324.921 80.5933 325.776 80.7624 326.574 81.0919C327.371 81.4214 328.096 81.9049 328.707 82.5147C329.317 83.1245 329.802 83.8487 330.132 84.6459C330.463 85.4431 330.633 86.2976 330.633 87.1605C330.633 88.0235 330.463 88.878 330.132 89.6751C329.802 90.4723 329.317 91.1965 328.707 91.8064C328.096 92.4162 327.371 92.8997 326.574 93.2292C325.776 93.5587 324.921 93.7277 324.058 93.7267Z" fill="#CCCCCC"/>
<path d="M388.337 94.0723H355.161C353.42 94.0723 351.75 93.3805 350.518 92.1491C349.287 90.9177 348.595 89.2476 348.595 87.5061C348.595 85.7647 349.287 84.0945 350.518 82.8631C351.75 81.6318 353.42 80.94 355.161 80.94H388.337C390.079 80.94 391.749 81.6318 392.98 82.8631C394.212 84.0945 394.904 85.7647 394.904 87.5061C394.904 89.2476 394.212 90.9177 392.98 92.1491C391.749 93.3805 390.079 94.0723 388.337 94.0723Z" fill="#CCCCCC"/>
<path d="M240.427 143.837H207.25C205.51 143.835 203.842 143.142 202.613 141.911C201.383 140.679 200.692 139.011 200.692 137.271C200.692 135.53 201.383 133.862 202.613 132.63C203.842 131.399 205.51 130.707 207.25 130.704H240.427C241.29 130.703 242.144 130.872 242.942 131.202C243.739 131.531 244.464 132.015 245.075 132.625C245.685 133.235 246.17 133.959 246.5 134.756C246.831 135.553 247.001 136.408 247.001 137.271C247.001 138.134 246.831 138.988 246.5 139.785C246.17 140.582 245.685 141.307 245.075 141.916C244.464 142.526 243.739 143.01 242.942 143.339C242.144 143.669 241.29 143.838 240.427 143.837Z" fill="#CCCCCC"/>
<path d="M324.058 351.954H207.25C205.509 351.954 203.839 351.263 202.607 350.031C201.376 348.8 200.684 347.13 200.684 345.388C200.684 343.647 201.376 341.977 202.607 340.745C203.839 339.514 205.509 338.822 207.25 338.822H324.058C324.921 338.822 325.775 338.992 326.571 339.322C327.368 339.652 328.092 340.136 328.701 340.745C329.311 341.355 329.795 342.079 330.125 342.876C330.455 343.672 330.625 344.526 330.625 345.388C330.625 346.251 330.455 347.104 330.125 347.901C329.795 348.698 329.311 349.422 328.701 350.031C328.092 350.641 327.368 351.125 326.571 351.455C325.775 351.785 324.921 351.954 324.058 351.954Z" fill="#CCCCCC"/>
<path d="M469.205 351.954H352.397C350.655 351.954 348.985 351.263 347.754 350.031C346.522 348.8 345.83 347.13 345.83 345.388C345.83 343.647 346.522 341.977 347.754 340.745C348.985 339.514 350.655 338.822 352.397 338.822H469.205C470.067 338.822 470.921 338.992 471.717 339.322C472.514 339.652 473.238 340.136 473.848 340.745C474.457 341.355 474.941 342.079 475.271 342.876C475.601 343.672 475.771 344.526 475.771 345.388C475.771 346.251 475.601 347.104 475.271 347.901C474.941 348.698 474.457 349.422 473.848 350.031C473.238 350.641 472.514 351.125 471.717 351.455C470.921 351.785 470.067 351.954 469.205 351.954Z" fill="#CCCCCC"/>
<path d="M469.205 376.837H266C264.259 376.837 262.588 376.145 261.357 374.914C260.126 373.682 259.434 372.012 259.434 370.271C259.434 368.529 260.126 366.859 261.357 365.628C262.588 364.396 264.259 363.704 266 363.704H469.205C470.068 363.703 470.922 363.872 471.72 364.202C472.517 364.531 473.242 365.015 473.853 365.625C474.463 366.235 474.948 366.959 475.278 367.756C475.609 368.553 475.779 369.408 475.779 370.271C475.779 371.133 475.609 371.988 475.278 372.785C474.948 373.582 474.463 374.307 473.853 374.916C473.242 375.526 472.517 376.01 471.72 376.339C470.922 376.669 470.068 376.838 469.205 376.837Z" fill="#CCCCCC"/>
<path d="M324.058 326.727H207.25C205.509 326.727 203.839 326.035 202.607 324.803C201.376 323.572 200.684 321.902 200.684 320.161C200.684 318.419 201.376 316.749 202.607 315.518C203.839 314.286 205.509 313.594 207.25 313.594H324.058C325.8 313.594 327.47 314.286 328.701 315.518C329.933 316.749 330.625 318.419 330.625 320.161C330.625 321.902 329.933 323.572 328.701 324.803C327.47 326.035 325.8 326.727 324.058 326.727Z" fill="#CCCCCC"/>
<path d="M388.337 327.072H355.161C353.42 327.072 351.75 326.38 350.518 325.149C349.287 323.918 348.595 322.248 348.595 320.506C348.595 318.765 349.287 317.095 350.518 315.863C351.75 314.632 353.42 313.94 355.161 313.94H388.337C390.079 313.94 391.749 314.632 392.98 315.863C394.212 317.095 394.904 318.765 394.904 320.506C394.904 322.248 394.212 323.918 392.98 325.149C391.749 326.38 390.079 327.072 388.337 327.072Z" fill="#CCCCCC"/>
<path d="M240.427 376.837H207.25C205.509 376.837 203.839 376.145 202.607 374.914C201.376 373.682 200.684 372.012 200.684 370.271C200.684 368.529 201.376 366.859 202.607 365.628C203.839 364.396 205.509 363.704 207.25 363.704H240.427C241.29 363.703 242.144 363.872 242.942 364.202C243.739 364.531 244.464 365.015 245.075 365.625C245.685 366.235 246.17 366.959 246.5 367.756C246.831 368.553 247.001 369.408 247.001 370.271C247.001 371.133 246.831 371.988 246.5 372.785C246.17 373.582 245.685 374.307 245.075 374.916C244.464 375.526 243.739 376.01 242.942 376.339C242.144 376.669 241.29 376.838 240.427 376.837Z" fill="#CCCCCC"/>
<path d="M293.552 281.462C291.073 281.467 288.692 280.493 286.928 278.752L243.02 235.392C242.158 234.541 241.473 233.527 241.006 232.409C240.539 231.292 240.298 230.092 240.298 228.881C240.298 227.669 240.539 226.47 241.006 225.352C241.473 224.234 242.158 223.22 243.02 222.369L286.751 179.185C288.573 177.394 291.027 176.395 293.581 176.403C296.136 176.411 298.584 177.426 300.394 179.228C302.207 181.044 303.225 183.505 303.225 186.071C303.225 188.637 302.207 191.098 300.395 192.914L267.899 225.411C266.886 226.426 266.318 227.801 266.318 229.234C266.318 230.668 266.886 232.043 267.899 233.057L300.218 265.378C301.538 266.695 302.437 268.374 302.802 270.203C303.166 272.032 302.98 273.927 302.266 275.65C301.552 277.372 300.343 278.844 298.791 279.879C297.24 280.914 295.417 281.464 293.552 281.462Z" fill="#1976D2"/>
<path d="M363.517 281.462C361.653 281.464 359.829 280.913 358.278 279.879C356.727 278.844 355.517 277.372 354.804 275.65C354.09 273.927 353.903 272.031 354.268 270.203C354.632 268.374 355.531 266.695 356.851 265.378L389.171 233.057C390.183 232.043 390.752 230.668 390.752 229.234C390.752 227.801 390.183 226.426 389.171 225.411L356.675 192.914C355.776 192.016 355.063 190.949 354.577 189.774C354.09 188.6 353.84 187.342 353.84 186.071C353.84 184.8 354.09 183.541 354.577 182.367C355.063 181.193 355.776 180.126 356.675 179.228C358.485 177.426 360.933 176.411 363.488 176.403C366.042 176.395 368.496 177.394 370.318 179.185L414.05 222.369C414.912 223.22 415.596 224.234 416.063 225.352C416.53 226.47 416.771 227.669 416.771 228.881C416.771 230.092 416.53 231.292 416.063 232.409C415.596 233.527 414.912 234.541 414.05 235.392L370.141 278.752C368.377 280.493 365.996 281.467 363.517 281.462Z" fill="#1976D2"/>
<path d="M995.568 556.548H354.731C350.357 556.543 346.163 554.803 343.069 551.71C339.976 548.616 338.236 544.422 338.231 540.048V144.894C338.235 141.689 339.509 138.617 341.776 136.35C344.042 134.084 347.114 132.809 350.319 132.806H999.768C1003.03 132.809 1006.16 134.106 1008.47 136.412C1010.77 138.717 1012.07 141.843 1012.07 145.103V540.048C1012.07 544.422 1010.33 548.616 1007.23 551.71C1004.14 554.803 999.948 556.543 995.568 556.548Z" fill="#F2F2F2"/>
<path d="M974.848 535.716H377.605C368.85 535.716 361.728 529.046 361.728 520.847V176.742C361.728 170.662 367.006 165.716 373.493 165.716H978.768C985.358 165.716 990.728 170.744 990.728 176.924V520.847C990.728 529.046 983.608 535.716 974.848 535.716Z" fill="#F1FAEE"/>
<path d="M1011.84 146.95H338V138.55C338.006 134.161 339.753 129.953 342.858 126.851C345.962 123.748 350.17 122.004 354.56 122H995.278C999.668 122.004 1003.88 123.748 1006.98 126.851C1010.09 129.953 1011.84 134.161 1011.84 138.55V146.95Z" fill="#1D3557"/>
<path d="M368.095 138.783C370.461 138.783 372.378 136.866 372.378 134.5C372.378 132.134 370.461 130.217 368.095 130.217C365.729 130.217 363.812 132.134 363.812 134.5C363.812 136.866 365.729 138.783 368.095 138.783Z" fill="white"/>
<path d="M384.354 138.783C386.719 138.783 388.637 136.866 388.637 134.5C388.637 132.134 386.719 130.217 384.354 130.217C381.988 130.217 380.07 132.134 380.07 134.5C380.07 136.866 381.988 138.783 384.354 138.783Z" fill="white"/>
<path d="M400.613 138.783C402.978 138.783 404.896 136.866 404.896 134.5C404.896 132.134 402.978 130.217 400.613 130.217C398.247 130.217 396.329 132.134 396.329 134.5C396.329 136.866 398.247 138.783 400.613 138.783Z" fill="white"/>
<path d="M662.059 240.954H545.25C543.509 240.954 541.839 240.263 540.607 239.031C539.376 237.8 538.684 236.13 538.684 234.388C538.684 232.647 539.376 230.977 540.607 229.745C541.839 228.514 543.509 227.822 545.25 227.822H662.059C663.8 227.822 665.47 228.514 666.701 229.745C667.933 230.977 668.625 232.647 668.625 234.388C668.625 236.13 667.933 237.8 666.701 239.031C665.47 240.263 663.8 240.954 662.059 240.954Z" fill="#CCCCCC"/>
<path d="M807.208 240.954H690.397C688.655 240.954 686.985 240.263 685.754 239.031C684.522 237.8 683.83 236.13 683.83 234.388C683.83 232.647 684.522 230.977 685.754 229.745C686.985 228.514 688.655 227.822 690.397 227.822H807.208C808.948 227.822 810.618 228.514 811.848 229.745C813.078 230.977 813.768 232.647 813.768 234.388C813.768 236.13 813.078 237.8 811.848 239.031C810.618 240.263 808.948 240.954 807.208 240.954Z" fill="#CCCCCC"/>
<path d="M807.208 265.837H604C602.259 265.837 600.588 265.145 599.357 263.913C598.126 262.682 597.434 261.012 597.434 259.271C597.434 257.529 598.126 255.859 599.357 254.628C600.588 253.396 602.259 252.704 604 252.704H807.208C808.948 252.704 810.618 253.396 811.848 254.628C813.078 255.859 813.768 257.529 813.768 259.271C813.768 261.012 813.078 262.682 811.848 263.913C810.618 265.145 808.948 265.837 807.208 265.837Z" fill="#CCCCCC"/>
<path d="M662.059 215.727H545.25C543.51 215.725 541.842 215.032 540.613 213.801C539.383 212.569 538.692 210.901 538.692 209.161C538.692 207.42 539.383 205.752 540.613 204.52C541.842 203.289 543.51 202.597 545.25 202.594H662.059C662.921 202.593 663.776 202.762 664.574 203.092C665.371 203.421 666.096 203.905 666.707 204.515C667.317 205.125 667.802 205.849 668.132 206.646C668.463 207.443 668.633 208.298 668.633 209.161C668.633 210.023 668.463 210.878 668.132 211.675C667.802 212.472 667.317 213.197 666.707 213.806C666.096 214.416 665.371 214.9 664.574 215.229C663.776 215.559 662.921 215.728 662.059 215.727Z" fill="#CCCCCC"/>
<path d="M726.337 216.072H693.161C691.42 216.072 689.75 215.38 688.518 214.149C687.287 212.918 686.595 211.248 686.595 209.506C686.595 207.765 687.287 206.095 688.518 204.863C689.75 203.632 691.42 202.94 693.161 202.94H726.337C728.079 202.94 729.749 203.632 730.98 204.863C732.212 206.095 732.904 207.765 732.904 209.506C732.904 211.248 732.212 212.918 730.98 214.149C729.749 215.38 728.079 216.072 726.337 216.072Z" fill="#CCCCCC"/>
<path d="M578.427 265.837H545.25C543.51 265.835 541.842 265.142 540.613 263.911C539.383 262.679 538.692 261.011 538.692 259.271C538.692 257.53 539.383 255.862 540.613 254.63C541.842 253.399 543.51 252.707 545.25 252.704H578.427C579.29 252.703 580.144 252.872 580.942 253.202C581.739 253.531 582.464 254.015 583.075 254.625C583.685 255.235 584.17 255.959 584.5 256.756C584.831 257.553 585.001 258.408 585.001 259.271C585.001 260.134 584.831 260.988 584.5 261.785C584.17 262.582 583.685 263.307 583.075 263.916C582.464 264.526 581.739 265.01 580.942 265.339C580.144 265.669 579.29 265.838 578.427 265.837Z" fill="#CCCCCC"/>
<path d="M662.059 473.954H545.25C543.509 473.954 541.839 473.263 540.607 472.031C539.376 470.8 538.684 469.13 538.684 467.388C538.684 465.647 539.376 463.977 540.607 462.745C541.839 461.514 543.509 460.822 545.25 460.822H662.059C662.921 460.822 663.775 460.992 664.571 461.322C665.368 461.652 666.092 462.136 666.701 462.745C667.311 463.355 667.795 464.079 668.125 464.876C668.455 465.672 668.625 466.526 668.625 467.388C668.625 468.251 668.455 469.104 668.125 469.901C667.795 470.698 667.311 471.422 666.701 472.031C666.092 472.641 665.368 473.125 664.571 473.455C663.775 473.785 662.921 473.954 662.059 473.954Z" fill="#CCCCCC"/>
<path d="M807.208 473.954H690.397C688.655 473.954 686.985 473.263 685.754 472.031C684.522 470.8 683.83 469.13 683.83 467.388C683.83 465.647 684.522 463.977 685.754 462.745C686.985 461.514 688.655 460.822 690.397 460.822H807.208C808.068 460.822 808.918 460.992 809.718 461.322C810.518 461.652 811.238 462.136 811.848 462.745C812.458 463.355 812.938 464.079 813.268 464.876C813.598 465.672 813.768 466.526 813.768 467.388C813.768 468.251 813.598 469.104 813.268 469.901C812.938 470.698 812.458 471.422 811.848 472.031C811.238 472.641 810.518 473.125 809.718 473.455C808.918 473.785 808.068 473.954 807.208 473.954Z" fill="#CCCCCC"/>
<path d="M807.208 498.837H604C602.259 498.837 600.588 498.145 599.357 496.914C598.126 495.682 597.434 494.012 597.434 492.271C597.434 490.529 598.126 488.859 599.357 487.628C600.588 486.396 602.259 485.704 604 485.704H807.208C808.068 485.703 808.918 485.872 809.718 486.202C810.518 486.531 811.238 487.015 811.848 487.625C812.468 488.235 812.948 488.959 813.278 489.756C813.608 490.553 813.778 491.408 813.778 492.271C813.778 493.133 813.608 493.988 813.278 494.785C812.948 495.582 812.468 496.307 811.848 496.916C811.238 497.526 810.518 498.01 809.718 498.339C808.918 498.669 808.068 498.838 807.208 498.837Z" fill="#CCCCCC"/>
<path d="M662.059 448.727H545.25C543.509 448.727 541.839 448.035 540.607 446.803C539.376 445.572 538.684 443.902 538.684 442.161C538.684 440.419 539.376 438.749 540.607 437.518C541.839 436.286 543.509 435.594 545.25 435.594H662.059C663.8 435.594 665.47 436.286 666.701 437.518C667.933 438.749 668.625 440.419 668.625 442.161C668.625 443.902 667.933 445.572 666.701 446.803C665.47 448.035 663.8 448.727 662.059 448.727Z" fill="#CCCCCC"/>
<path d="M726.337 449.072H693.161C691.42 449.072 689.75 448.38 688.518 447.149C687.287 445.918 686.595 444.248 686.595 442.506C686.595 440.765 687.287 439.095 688.518 437.863C689.75 436.632 691.42 435.94 693.161 435.94H726.337C728.079 435.94 729.749 436.632 730.98 437.863C732.212 439.095 732.904 440.765 732.904 442.506C732.904 444.248 732.212 445.918 730.98 447.149C729.749 448.38 728.079 449.072 726.337 449.072Z" fill="#CCCCCC"/>
<path d="M578.427 498.837H545.25C543.509 498.837 541.839 498.145 540.607 496.914C539.376 495.682 538.684 494.012 538.684 492.271C538.684 490.529 539.376 488.859 540.607 487.628C541.839 486.396 543.509 485.704 545.25 485.704H578.427C579.29 485.703 580.144 485.872 580.942 486.202C581.739 486.531 582.464 487.015 583.075 487.625C583.685 488.235 584.17 488.959 584.5 489.756C584.831 490.553 585.001 491.408 585.001 492.271C585.001 493.133 584.831 493.988 584.5 494.785C584.17 495.582 583.685 496.307 583.075 496.916C582.464 497.526 581.739 498.01 580.942 498.339C580.144 498.669 579.29 498.838 578.427 498.837Z" fill="#CCCCCC"/>
<path d="M631.552 403.462C629.073 403.467 626.692 402.493 624.928 400.752L581.02 357.392C580.158 356.541 579.473 355.527 579.006 354.409C578.539 353.292 578.298 352.092 578.298 350.881C578.298 349.669 578.539 348.47 579.006 347.352C579.473 346.234 580.158 345.22 581.02 344.369L624.751 301.185C626.573 299.394 629.027 298.395 631.581 298.403C634.136 298.411 636.584 299.426 638.394 301.228C640.207 303.044 641.224 305.505 641.225 308.071C641.225 310.637 640.207 313.098 638.395 314.914L605.899 347.411C604.886 348.426 604.318 349.801 604.318 351.234C604.318 352.668 604.886 354.043 605.899 355.057L638.218 387.378C639.538 388.695 640.437 390.374 640.802 392.203C641.166 394.032 640.98 395.927 640.266 397.65C639.552 399.372 638.342 400.844 636.791 401.879C635.24 402.914 633.417 403.464 631.552 403.462Z" fill="#1976D2"/>
<path d="M701.517 403.462C699.653 403.464 697.829 402.913 696.278 401.879C694.727 400.844 693.517 399.372 692.804 397.65C692.09 395.927 691.903 394.031 692.268 392.203C692.632 390.374 693.531 388.695 694.851 387.378L727.171 355.057C728.183 354.043 728.752 352.668 728.752 351.234C728.752 349.801 728.183 348.426 727.171 347.411L694.675 314.914C693.776 314.016 693.063 312.949 692.577 311.774C692.09 310.6 691.84 309.342 691.84 308.071C691.84 306.8 692.09 305.541 692.577 304.367C693.063 303.193 693.776 302.126 694.675 301.228C696.485 299.426 698.933 298.411 701.488 298.403C704.042 298.395 706.496 299.394 708.318 301.185L752.05 344.369C752.912 345.22 753.596 346.234 754.063 347.352C754.528 348.47 754.768 349.669 754.768 350.881C754.768 352.092 754.528 353.292 754.063 354.409C753.596 355.527 752.912 356.541 752.05 357.392L708.141 400.752C706.377 402.493 703.996 403.467 701.517 403.462Z" fill="#1976D2"/>
</svg>
