<svg width="205" height="33" viewBox="0 0 205 33" fill="none" xmlns="http://www.w3.org/2000/svg">
<g filter="url(#filter0_d_203_5)">
<path d="M14.625 19.2969C14.625 18.9844 14.526 18.7083 14.3281 18.4688C14.1406 18.2292 13.7969 18.0104 13.2969 17.8125C12.8073 17.6146 12.1146 17.4167 11.2188 17.2188C10.375 17.0417 9.58854 16.8125 8.85938 16.5312C8.13021 16.2396 7.49479 15.8906 6.95312 15.4844C6.41146 15.0677 5.98958 14.5781 5.6875 14.0156C5.38542 13.4427 5.23438 12.7917 5.23438 12.0625C5.23438 11.3542 5.38542 10.6823 5.6875 10.0469C6 9.41146 6.44792 8.84896 7.03125 8.35938C7.625 7.86979 8.34375 7.48438 9.1875 7.20312C10.0417 6.92188 11.0104 6.78125 12.0938 6.78125C13.5833 6.78125 14.8698 7.01562 15.9531 7.48438C17.0365 7.94271 17.8698 8.58854 18.4531 9.42188C19.0365 10.2448 19.3281 11.1875 19.3281 12.25H14.4531C14.4531 11.8125 14.3698 11.4323 14.2031 11.1094C14.0365 10.7865 13.7812 10.5365 13.4375 10.3594C13.0938 10.1719 12.6406 10.0781 12.0781 10.0781C11.6406 10.0781 11.2552 10.1562 10.9219 10.3125C10.599 10.4583 10.3438 10.6615 10.1562 10.9219C9.97917 11.1823 9.89062 11.4844 9.89062 11.8281C9.89062 12.0677 9.94271 12.2865 10.0469 12.4844C10.1615 12.6719 10.3333 12.849 10.5625 13.0156C10.8021 13.1719 11.1094 13.3125 11.4844 13.4375C11.8698 13.5625 12.3385 13.6823 12.8906 13.7969C14.0677 14.0156 15.1406 14.3229 16.1094 14.7188C17.0885 15.1146 17.8698 15.6615 18.4531 16.3594C19.0469 17.0573 19.3438 17.9792 19.3438 19.125C19.3438 19.875 19.1719 20.5625 18.8281 21.1875C18.4948 21.8125 18.0104 22.3594 17.375 22.8281C16.7396 23.2969 15.9792 23.6615 15.0938 23.9219C14.2083 24.1823 13.2083 24.3125 12.0938 24.3125C10.5 24.3125 9.15104 24.026 8.04688 23.4531C6.94271 22.8802 6.10938 22.1615 5.54688 21.2969C4.99479 20.4219 4.71875 19.526 4.71875 18.6094H9.29688C9.31771 19.1719 9.45833 19.6302 9.71875 19.9844C9.98958 20.3385 10.3385 20.599 10.7656 20.7656C11.1927 20.9219 11.6719 21 12.2031 21C12.7344 21 13.1771 20.9271 13.5312 20.7812C13.8854 20.6354 14.1562 20.4375 14.3438 20.1875C14.5312 19.9271 14.625 19.6302 14.625 19.2969ZM59.0469 19.9688V12.7188C59.0469 12.2083 58.9688 11.7708 58.8125 11.4062C58.6562 11.0417 58.4115 10.7552 58.0781 10.5469C57.7448 10.3385 57.3125 10.2344 56.7812 10.2344C56.3333 10.2344 55.9427 10.3125 55.6094 10.4688C55.2865 10.625 55.0365 10.849 54.8594 11.1406C54.6927 11.4323 54.6094 11.7917 54.6094 12.2188H49.7344C49.7344 11.4583 49.9062 10.75 50.25 10.0938C50.5938 9.4375 51.0833 8.85938 51.7188 8.35938C52.3646 7.85938 53.1354 7.47396 54.0312 7.20312C54.9271 6.92188 55.9323 6.78125 57.0469 6.78125C58.3698 6.78125 59.5469 7.00521 60.5781 7.45312C61.6198 7.89062 62.4427 8.55208 63.0469 9.4375C63.651 10.3125 63.9531 11.4167 63.9531 12.75V19.8281C63.9531 20.849 64.0104 21.651 64.125 22.2344C64.25 22.8073 64.4271 23.3073 64.6562 23.7344V24H59.7344C59.5052 23.5104 59.3333 22.9062 59.2188 22.1875C59.1042 21.4583 59.0469 20.7188 59.0469 19.9688ZM59.6562 13.6875L59.6875 16.375H57.2656C56.724 16.375 56.2552 16.4427 55.8594 16.5781C55.474 16.7135 55.1615 16.901 54.9219 17.1406C54.6823 17.3698 54.5052 17.6406 54.3906 17.9531C54.2865 18.2552 54.2344 18.5885 54.2344 18.9531C54.2344 19.2969 54.3177 19.6094 54.4844 19.8906C54.651 20.1615 54.8802 20.375 55.1719 20.5312C55.4635 20.6875 55.8021 20.7656 56.1875 20.7656C56.8229 20.7656 57.3646 20.6406 57.8125 20.3906C58.2708 20.1406 58.625 19.8385 58.875 19.4844C59.125 19.1198 59.25 18.7812 59.25 18.4688L60.4219 20.5C60.2344 20.9167 60.0052 21.349 59.7344 21.7969C59.4635 22.2344 59.1198 22.6458 58.7031 23.0312C58.2865 23.4062 57.7812 23.7135 57.1875 23.9531C56.6042 24.1927 55.901 24.3125 55.0781 24.3125C54.0156 24.3125 53.0521 24.099 52.1875 23.6719C51.3229 23.2344 50.6302 22.6354 50.1094 21.875C49.599 21.1146 49.3438 20.2396 49.3438 19.25C49.3438 18.3646 49.5052 17.5781 49.8281 16.8906C50.151 16.2031 50.6354 15.6198 51.2812 15.1406C51.9375 14.6615 52.7604 14.3021 53.75 14.0625C54.7396 13.8125 55.8958 13.6875 57.2188 13.6875H59.6562ZM72.0469 11.0312V24H67.1719V7.09375H71.75L72.0469 11.0312ZM77.0938 6.96875L77.0156 11.5156C76.8073 11.4844 76.5365 11.4583 76.2031 11.4375C75.8698 11.4062 75.5833 11.3906 75.3438 11.3906C74.7188 11.3906 74.1771 11.4688 73.7188 11.625C73.2708 11.7708 72.8958 11.9896 72.5938 12.2812C72.3021 12.5729 72.0833 12.9375 71.9375 13.375C71.7917 13.8021 71.7188 14.2969 71.7188 14.8594L70.7969 14.4062C70.7969 13.2917 70.9062 12.2708 71.125 11.3438C71.3438 10.4167 71.6615 9.61458 72.0781 8.9375C72.4948 8.25 73.0052 7.71875 73.6094 7.34375C74.2135 6.96875 74.901 6.78125 75.6719 6.78125C75.9219 6.78125 76.1771 6.79688 76.4375 6.82812C76.6979 6.85938 76.9167 6.90625 77.0938 6.96875ZM88.4688 7.09375V10.5156H78.4375V7.09375H88.4688ZM80.7344 2.90625H85.625V18.7031C85.625 19.1719 85.6823 19.5312 85.7969 19.7812C85.9115 20.0312 86.099 20.2083 86.3594 20.3125C86.6198 20.4062 86.9531 20.4531 87.3594 20.4531C87.651 20.4531 87.901 20.4427 88.1094 20.4219C88.3177 20.401 88.5104 20.375 88.6875 20.3438V23.875C88.2708 24.0104 87.8281 24.1146 87.3594 24.1875C86.8906 24.2708 86.3802 24.3125 85.8281 24.3125C84.776 24.3125 83.8646 24.1406 83.0938 23.7969C82.3333 23.4531 81.75 22.9115 81.3438 22.1719C80.9375 21.4219 80.7344 20.4479 80.7344 19.25V2.90625ZM116.703 0V24H111.812V0H116.703ZM129.172 19.9688V12.7188C129.172 12.2083 129.094 11.7708 128.938 11.4062C128.781 11.0417 128.536 10.7552 128.203 10.5469C127.87 10.3385 127.438 10.2344 126.906 10.2344C126.458 10.2344 126.068 10.3125 125.734 10.4688C125.411 10.625 125.161 10.849 124.984 11.1406C124.818 11.4323 124.734 11.7917 124.734 12.2188H119.859C119.859 11.4583 120.031 10.75 120.375 10.0938C120.719 9.4375 121.208 8.85938 121.844 8.35938C122.49 7.85938 123.26 7.47396 124.156 7.20312C125.052 6.92188 126.057 6.78125 127.172 6.78125C128.495 6.78125 129.672 7.00521 130.703 7.45312C131.745 7.89062 132.568 8.55208 133.172 9.4375C133.776 10.3125 134.078 11.4167 134.078 12.75V19.8281C134.078 20.849 134.135 21.651 134.25 22.2344C134.375 22.8073 134.552 23.3073 134.781 23.7344V24H129.859C129.63 23.5104 129.458 22.9062 129.344 22.1875C129.229 21.4583 129.172 20.7188 129.172 19.9688ZM129.781 13.6875L129.812 16.375H127.391C126.849 16.375 126.38 16.4427 125.984 16.5781C125.599 16.7135 125.286 16.901 125.047 17.1406C124.807 17.3698 124.63 17.6406 124.516 17.9531C124.411 18.2552 124.359 18.5885 124.359 18.9531C124.359 19.2969 124.443 19.6094 124.609 19.8906C124.776 20.1615 125.005 20.375 125.297 20.5312C125.589 20.6875 125.927 20.7656 126.312 20.7656C126.948 20.7656 127.49 20.6406 127.938 20.3906C128.396 20.1406 128.75 19.8385 129 19.4844C129.25 19.1198 129.375 18.7812 129.375 18.4688L130.547 20.5C130.359 20.9167 130.13 21.349 129.859 21.7969C129.589 22.2344 129.245 22.6458 128.828 23.0312C128.411 23.4062 127.906 23.7135 127.312 23.9531C126.729 24.1927 126.026 24.3125 125.203 24.3125C124.141 24.3125 123.177 24.099 122.312 23.6719C121.448 23.2344 120.755 22.6354 120.234 21.875C119.724 21.1146 119.469 20.2396 119.469 19.25C119.469 18.3646 119.63 17.5781 119.953 16.8906C120.276 16.2031 120.76 15.6198 121.406 15.1406C122.062 14.6615 122.885 14.3021 123.875 14.0625C124.865 13.8125 126.021 13.6875 127.344 13.6875H129.781ZM142.062 10.7031V24H137.172V7.09375H141.766L142.062 10.7031ZM141.422 14.9531L140.203 14.9844C140.203 13.7135 140.359 12.5729 140.672 11.5625C140.984 10.5521 141.427 9.69271 142 8.98438C142.583 8.26562 143.276 7.71875 144.078 7.34375C144.891 6.96875 145.786 6.78125 146.766 6.78125C147.557 6.78125 148.281 6.89583 148.938 7.125C149.594 7.35417 150.156 7.72396 150.625 8.23438C151.104 8.73438 151.469 9.40104 151.719 10.2344C151.969 11.0573 152.094 12.0729 152.094 13.2812V24H147.188V13.2656C147.188 12.5573 147.089 12.0104 146.891 11.625C146.693 11.2396 146.401 10.9688 146.016 10.8125C145.641 10.6562 145.182 10.5781 144.641 10.5781C144.068 10.5781 143.578 10.6927 143.172 10.9219C142.766 11.1406 142.432 11.4479 142.172 11.8438C141.911 12.2396 141.719 12.7031 141.594 13.2344C141.479 13.7656 141.422 14.3385 141.422 14.9531ZM160.062 10.7031V24H155.172V7.09375H159.766L160.062 10.7031ZM159.422 14.9531L158.203 14.9844C158.203 13.7135 158.359 12.5729 158.672 11.5625C158.984 10.5521 159.427 9.69271 160 8.98438C160.583 8.26562 161.276 7.71875 162.078 7.34375C162.891 6.96875 163.786 6.78125 164.766 6.78125C165.557 6.78125 166.281 6.89583 166.938 7.125C167.594 7.35417 168.156 7.72396 168.625 8.23438C169.104 8.73438 169.469 9.40104 169.719 10.2344C169.969 11.0573 170.094 12.0729 170.094 13.2812V24H165.188V13.2656C165.188 12.5573 165.089 12.0104 164.891 11.625C164.693 11.2396 164.401 10.9688 164.016 10.8125C163.641 10.6562 163.182 10.5781 162.641 10.5781C162.068 10.5781 161.578 10.6927 161.172 10.9219C160.766 11.1406 160.432 11.4479 160.172 11.8438C159.911 12.2396 159.719 12.7031 159.594 13.2344C159.479 13.7656 159.422 14.3385 159.422 14.9531ZM181.25 24.3125C179.906 24.3125 178.703 24.099 177.641 23.6719C176.578 23.2448 175.677 22.6562 174.938 21.9062C174.208 21.1458 173.651 20.2708 173.266 19.2812C172.88 18.2917 172.688 17.2344 172.688 16.1094V15.5156C172.688 14.2552 172.865 13.0938 173.219 12.0312C173.573 10.9688 174.089 10.0469 174.766 9.26562C175.453 8.47396 176.297 7.86458 177.297 7.4375C178.297 7 179.438 6.78125 180.719 6.78125C181.917 6.78125 182.984 6.97917 183.922 7.375C184.859 7.76042 185.651 8.31771 186.297 9.04688C186.943 9.76562 187.432 10.6354 187.766 11.6562C188.109 12.6667 188.281 13.8021 188.281 15.0625V17.0625H174.656V13.9219H183.5V13.5469C183.5 12.9531 183.391 12.4323 183.172 11.9844C182.964 11.5365 182.651 11.1927 182.234 10.9531C181.828 10.7031 181.312 10.5781 180.688 10.5781C180.094 10.5781 179.599 10.7031 179.203 10.9531C178.807 11.2031 178.49 11.5573 178.25 12.0156C178.021 12.4635 177.854 12.9896 177.75 13.5938C177.646 14.1875 177.594 14.8281 177.594 15.5156V16.1094C177.594 16.7656 177.682 17.3646 177.859 17.9062C178.036 18.4479 178.297 18.9115 178.641 19.2969C178.984 19.6823 179.401 19.9844 179.891 20.2031C180.38 20.4219 180.938 20.5312 181.562 20.5312C182.333 20.5312 183.068 20.3854 183.766 20.0938C184.464 19.7917 185.068 19.3229 185.578 18.6875L187.859 21.2969C187.516 21.7969 187.031 22.2812 186.406 22.75C185.792 23.2083 185.052 23.5833 184.188 23.875C183.323 24.1667 182.344 24.3125 181.25 24.3125ZM195.547 11.0312V24H190.672V7.09375H195.25L195.547 11.0312ZM200.594 6.96875L200.516 11.5156C200.307 11.4844 200.036 11.4583 199.703 11.4375C199.37 11.4062 199.083 11.3906 198.844 11.3906C198.219 11.3906 197.677 11.4688 197.219 11.625C196.771 11.7708 196.396 11.9896 196.094 12.2812C195.802 12.5729 195.583 12.9375 195.438 13.375C195.292 13.8021 195.219 14.2969 195.219 14.8594L194.297 14.4062C194.297 13.2917 194.406 12.2708 194.625 11.3438C194.844 10.4167 195.161 9.61458 195.578 8.9375C195.995 8.25 196.505 7.71875 197.109 7.34375C197.714 6.96875 198.401 6.78125 199.172 6.78125C199.422 6.78125 199.677 6.79688 199.938 6.82812C200.198 6.85938 200.417 6.90625 200.594 6.96875Z" fill="#F1FAEE"/>
<path d="M24.75 1.25H28.9688L34.4375 17.5156L39.8906 1.25H44.1094L36.1406 24H32.7188L24.75 1.25ZM22.3125 1.25H26.6094L27.4062 18.1094V24H22.3125V1.25ZM42.25 1.25H46.5625V24H41.4531V18.1094L42.25 1.25ZM100.031 16.0938H94.3125V12.1406H100.031C100.875 12.1406 101.552 12 102.062 11.7188C102.583 11.4375 102.964 11.0521 103.203 10.5625C103.453 10.0625 103.578 9.5 103.578 8.875C103.578 8.22917 103.453 7.63021 103.203 7.07812C102.964 6.51562 102.583 6.0625 102.062 5.71875C101.552 5.375 100.875 5.20312 100.031 5.20312H96.1562V24H91.0625V1.25H100.031C101.844 1.25 103.396 1.57812 104.688 2.23438C105.99 2.89062 106.984 3.79167 107.672 4.9375C108.37 6.07292 108.719 7.375 108.719 8.84375C108.719 10.3125 108.37 11.5885 107.672 12.6719C106.984 13.7552 105.99 14.599 104.688 15.2031C103.396 15.7969 101.844 16.0938 100.031 16.0938Z" fill="#1976D2"/>
</g>
<defs>
<filter id="filter0_d_203_5" x="0.71875" y="0" width="203.875" height="32.3125" filterUnits="userSpaceOnUse" color-interpolation-filters="sRGB">
<feFlood flood-opacity="0" result="BackgroundImageFix"/>
<feColorMatrix in="SourceAlpha" type="matrix" values="0 0 0 0 0 0 0 0 0 0 0 0 0 0 0 0 0 0 127 0" result="hardAlpha"/>
<feOffset dy="4"/>
<feGaussianBlur stdDeviation="2"/>
<feComposite in2="hardAlpha" operator="out"/>
<feColorMatrix type="matrix" values="0 0 0 0 0 0 0 0 0 0 0 0 0 0 0 0 0 0 0.25 0"/>
<feBlend mode="normal" in2="BackgroundImageFix" result="effect1_dropShadow_203_5"/>
<feBlend mode="normal" in="SourceGraphic" in2="effect1_dropShadow_203_5" result="shape"/>
</filter>
</defs>
</svg>
